<?xml version="1.0" encoding="UTF-8"?><svg id="Layer_2" xmlns="http://www.w3.org/2000/svg" viewBox="0 0 500 42.2269"><g id="Components"><g id="ea2326d1-14c8-41ec-b37d-163a36ce72ca_10"><rect x="55.2639" y="1.1444" width="5.3203" height="40.5104" style="fill:#898c79;"/><polygon points="88.5012 1.1444 104.6936 34.2733 106.182 34.2733 122.2606 1.1444 128.0961 1.1444 128.0961 41.6547 122.8321 41.6547 122.8321 15.048 121.3451 15.048 108.3556 41.6547 102.4049 41.6547 89.4167 15.048 87.9873 15.048 87.9873 41.6547 82.6657 41.6547 82.6657 1.1444 88.5012 1.1444" style="fill:#898c79;"/><polygon points="150.2271 .5722 184.0427 .5722 184.0427 6.3509 155.5487 6.3509 155.5487 17.3367 180.6671 17.3367 180.6671 23.1161 155.5487 23.1161 155.5487 35.3039 184.0427 35.3039 184.0427 41.0826 150.2271 41.0826 150.2271 .5722" style="fill:#898c79;"/><path d="M201.714,28.3801h5.3216c0,5.2641,4.3486,8.0681,11.2723,8.0681,6.122,0,10.2417-2.0598,10.2417-5.6649,0-4.0053-5.4354-5.6074-11.3861-7.4383-6.7524-2.0023-14.2476-4.2341-14.2476-11.9589,0-6.2364,5.0352-10.8139,14.2476-10.8139,9.4989,0,15.8497,4.8632,15.8497,11.2147h-5.2641c0-3.49-5.2641-5.436-10.6432-5.436-6.0069,0-8.8685,2.4038-8.8685,4.9783,0,3.2611,4.9201,4.8632,10.5857,6.6373,6.9799,2.1743,14.9905,4.6919,14.9905,12.7024,0,6.294-5.149,11.558-14.9905,11.558-8.0681,0-17.1092-3.4331-17.1092-13.8468Z" style="fill:#898c79;"/><path d="M274.0858,0c6.6948,0,12.4166,2.2312,16.4788,6.1795h.0576s.2289.3433.5715.7442l-4.291,3.662c-2.4038-3.0904-6.9813-4.8063-12.8168-4.8063-10.0128,0-16.7652,5.8356-16.7652,15.048s6.7524,15.048,16.7652,15.048c5.8356,0,10.413-1.7159,12.8168-4.8063l4.291,3.662c-.3426.4009-.5715.7442-.5715.7442h-.0576c-4.0621,3.9484-9.784,6.1795-16.4788,6.1795-13.217,0-22.0868-8.0681-22.0868-20.8274S260.8688,0,274.0858,0Z" style="fill:#898c79;"/><path d="M381.1203,1.1444h-19.3966v40.5104h5.3216v-15.6209h14.704c9.4989,0,15.4495-3.49,15.4495-12.4729,0-9.0411-6.1233-12.4166-16.0786-12.4166ZM381.7494,20.2552h-14.704V6.9237h16.0211c5.8356,0,8.7534,2.5176,8.7534,6.5797,0,4.7488-4.0046,6.7517-10.0704,6.7517Z" style="fill:#898c79;"/><polygon points="416.4148 .5722 450.2303 .5722 450.2303 6.3509 421.7364 6.3509 421.7364 17.3367 446.8548 17.3367 446.8548 23.1161 421.7364 23.1161 421.7364 35.3039 450.2303 35.3039 450.2303 41.0826 416.4148 41.0826 416.4148 .5722" style="fill:#898c79;"/><path d="M467.9017,28.3801h5.3203c0,5.2641,4.3486,8.0681,11.2723,8.0681,6.122,0,10.2417-2.0598,10.2417-5.6649,0-4.0053-5.4354-5.6074-11.3861-7.4383-6.7511-2.0023-14.2476-4.2341-14.2476-11.9589,0-6.2364,5.0352-10.8139,14.2476-10.8139,9.4975,0,15.8497,4.8632,15.8497,11.2147h-5.2641c0-3.49-5.2641-5.436-10.6432-5.436-6.0082,0-8.8685,2.4038-8.8685,4.9783,0,3.2611,4.9214,4.8632,10.5857,6.6373,6.9799,2.1743,14.9905,4.6919,14.9905,12.7024,0,6.294-5.149,11.558-14.9905,11.558-8.0681,0-17.1079-3.4331-17.1079-13.8468Z" style="fill:#898c79;"/><rect y="1.1444" width="37.4213" height="5.7914" style="fill:#898c79;"/><polygon points="16.0786 14.3743 16.0786 41.6547 21.4002 41.6547 21.4002 9.0527 16.0786 14.3743" style="fill:#898c79;"/><polygon points="328.0889 .5722 322.394 .5722 332.2662 26.0338 317.6229 26.0338 323.5714 10.5566 317.9456 10.5566 306.1747 41.0825 311.839 41.0825 315.4016 31.8132 334.4411 31.8132 338.0455 41.0825 343.6522 41.0825 328.0889 .5722" style="fill:#898c79;"/></g></g></svg>