<?xml version="1.0" encoding="UTF-8"?><svg id="Layer_2" xmlns="http://www.w3.org/2000/svg" viewBox="0 0 500 77.347"><g id="Components"><g id="df252587-126d-406e-aca9-a8a5a4276f67_1"><path d="M372.7053,25.5887h-14.7736v12.2934h13.5591c5.5935,0,9.2863-1.847,9.2863-6.226,0-3.7459-2.6906-6.0674-8.0718-6.0674Z" style="fill:#f0f1f3;"/><path d="M0,0v77.347h500V0H0ZM39.1999,57.6154h-4.9073v-25.1562l4.9073-4.9073v30.0635ZM53.9735,25.5998H19.466v-5.3405h34.5075v5.3405ZM75.3329,57.6154h-4.906V20.2593h4.906v37.3561ZM137.5881,57.6154h-4.8542v-24.535h-1.3712l-11.9781,24.535h-5.4873l-11.9768-24.535h-1.3181v24.535h-4.9073V20.2593h5.3812l14.9316,30.5494h1.3725l14.8267-30.5494h5.3812v37.3561ZM189.1784,25.0604h-26.2753v10.1305h23.1626v5.3294h-23.1626v11.2388h26.2753v5.3287h-31.1825V19.7317h31.1825v5.3287ZM221.2507,58.143c-7.4399,0-15.777-3.1658-15.777-12.7686h4.9073c0,4.8542,4.01,7.4399,10.3946,7.4399,5.6453,0,9.4442-1.8995,9.4442-5.2238,0-3.6934-5.0122-5.1708-10.4995-6.8592-6.2266-1.8464-13.1382-3.9044-13.1382-11.0277,0-5.7508,4.6431-9.9719,13.1382-9.9719,8.7592,0,14.6156,4.4845,14.6156,10.3415h-4.8542c0-3.2182-4.8542-5.0128-9.8145-5.0128-5.5392,0-8.1779,2.2167-8.1779,4.5907,0,3.0072,4.537,4.4845,9.7614,6.1205,6.4364,2.005,13.8232,4.3266,13.8232,11.7133,0,5.8039-4.748,10.6581-13.8232,10.6581ZM272.2104,52.286c5.3812,0,9.6022-1.5823,11.8189-4.4321l3.9569,3.3768c-.316.3696-.527.6862-.527.6862h-.0531c-3.7459,3.6409-9.0221,5.6984-15.1957,5.6984-12.1879,0-20.3671-7.4399-20.3671-19.2057s8.1792-19.2057,20.3671-19.2057c6.1736,0,11.4498,2.0574,15.1957,5.6984h.0531s.2111.3166.527.6862l-3.9569,3.3768c-2.2167-2.8498-6.4377-4.4321-11.8189-4.4321-9.2332,0-15.4598,5.3812-15.4598,13.8763s6.2266,13.8763,15.4598,13.8763ZM331.1899,57.0877l-3.3237-8.5476h-17.5571l-3.2852,8.5476h-5.2232l10.8543-28.149h5.1877l-5.4853,14.2721h13.5031l-9.1034-23.4791h5.2514l14.3515,37.3561h-5.1701ZM371.4908,43.2108h-13.5591v14.4046h-4.9073V20.2593h17.8863c9.1801,0,14.8267,3.1127,14.8267,11.4498,0,8.2835-5.4873,11.5017-14.2466,11.5017ZM434.6396,25.0604h-26.2753v10.1305h23.1626v5.3294h-23.1626v11.2388h26.2753v5.3287h-31.1825V19.7317h31.1825v5.3287ZM466.7108,58.143c-7.4399,0-15.7758-3.1658-15.7758-12.7686h4.906c0,4.8542,4.01,7.4399,10.3946,7.4399,5.6453,0,9.4442-1.8995,9.4442-5.2238,0-3.6934-5.0122-5.1708-10.4995-6.8592-6.2254-1.8464-13.1382-3.9044-13.1382-11.0277,0-5.7508,4.6431-9.9719,13.1382-9.9719,8.758,0,14.6156,4.4845,14.6156,10.3415h-4.8542c0-3.2182-4.8542-5.0128-9.8145-5.0128-5.5404,0-8.1779,2.2167-8.1779,4.5907,0,3.0072,4.5382,4.4845,9.7614,6.1205,6.4364,2.005,13.8232,4.3266,13.8232,11.7133,0,5.8039-4.748,10.6581-13.8232,10.6581Z" style="fill:#f0f1f3;"/></g></g></svg>